<?xml version="1.0" encoding="iso-8859-1"?>
<!-- Generator: Adobe Illustrator 19.0.0, SVG Export Plug-In . SVG Version: 6.00 Build 0)  -->
<svg xmlns="http://www.w3.org/2000/svg" xmlns:xlink="http://www.w3.org/1999/xlink" version="1.1" id="Capa_1" x="0px" y="0px" viewBox="0 0 480 480" style="enable-background:new 0 0 480 480;" xml:space="preserve" width="512px" height="512px">
<g>
	<g>
		<g>
			<path d="M456,208h-58.224l-10.528-31.624c-3.304-9.768-12.456-16.351-22.768-16.376H352v-56c0-13.255-10.745-24-24-24h-58.224     l-10.528-31.624C255.944,38.608,246.792,32.025,236.48,32H115.52c-10.335,0.031-19.501,6.643-22.792,16.44L82.224,80H24     C10.745,80,0,90.745,0,104v192c0,13.255,10.745,24,24,24h104v104c0,13.255,10.745,24,24,24h304c13.255,0,24-10.745,24-24V232     C480,218.745,469.255,208,456,208z M16,104c0-4.418,3.582-8,8-8h64c3.447,0,6.506-2.208,7.592-5.48l12.296-36.976     c1.098-3.289,4.165-5.517,7.632-5.544h120.96c3.447,0.019,6.502,2.223,7.608,5.488l12.32,37.032     C257.494,93.792,260.553,96,264,96h64c4.418,0,8,3.582,8,8v56h-69.6c-17.568-50.024-72.362-76.335-122.386-58.768     C93.99,118.8,67.679,173.594,85.246,223.619c4.198,11.955,10.722,22.96,19.194,32.381H16V104z M128,304H24c-4.418,0-8-3.582-8-8     v-24h107c1.6,1.08,3.288,2.12,5,3.104V304z M128,256c-35.352-26.502-42.526-76.645-16.024-111.997s76.645-42.526,111.997-16.024     c11.074,8.302,19.805,19.335,25.339,32.021h-5.792c-3.757,0.045-7.451,0.971-10.784,2.704     c-16.12-31.392-54.636-43.772-86.027-27.653C125.364,146.012,111.959,168.006,112,192c-0.034,15.545,5.662,30.558,16,42.168V256z      M141,210.76c-0.872,0.435-1.717,0.924-2.528,1.464c-0.512,0.352-0.976,0.744-1.456,1.128c-0.731,0.581-1.428,1.203-2.088,1.864     c-0.2,0.208-0.456,0.368-0.648,0.584c-4.147-7.244-6.313-15.453-6.28-23.8c0.022-26.51,21.53-47.982,48.04-47.96     c20.112,0.017,38.081,12.57,45.016,31.448c-0.128,0.32-0.224,0.64-0.328,0.952L210.224,208H152     c-1.638,0.006-3.27,0.18-4.872,0.52h0.008c-0.504,0.104-0.968,0.296-1.456,0.432c-1.049,0.265-2.078,0.602-3.08,1.008     C142.056,210.192,141.552,210.496,141,210.76z M464,424c0,4.418-3.582,8-8,8H152c-4.418,0-8-3.582-8-8v-24h107.072     c32.064,21.332,73.8,21.332,105.864,0H464V424z M224,320c0-2.472,0.152-4.864,0.368-7.288c4.018-44,42.943-76.412,86.943-72.394     c10.131,0.925,19.993,3.774,29.057,8.394c39.373,20.046,55.041,68.216,34.994,107.589     c-20.046,39.373-68.216,55.041-107.589,34.994c-3.376-1.719-6.626-3.676-9.726-5.855l-0.008,0.048     C236.717,370.495,224.019,346.067,224,320z M464,384h-88.576c35.368-39.457,32.054-100.115-7.403-135.483     c-39.457-35.369-100.115-32.054-135.483,7.402c-13.781,15.374-22.235,34.783-24.106,55.345C208.168,314.152,208,317.032,208,320     c0.036,23.631,8.786,46.419,24.576,64H144V232.32c0-0.248,0.056-0.488,0.072-0.744c0.188-4.24,3.683-7.58,7.928-7.576h64     c3.447,0,6.506-2.208,7.592-5.48l12.376-37.2c0.106-0.313,0.251-0.612,0.432-0.888l0.248-0.424c1.389-2.487,4.023-4.02,6.872-4     h120.96c3.445,0.018,6.5,2.218,7.608,5.48h0l12.32,37.032c1.086,3.271,4.145,5.48,7.592,5.48h64c4.418,0,8,3.582,8,8V384z" fill="#D80027"/>
			<path d="M304,384c35.33-0.04,63.96-28.67,64-64c0-35.346-28.654-64-64-64c-35.346,0-64,28.654-64,64     C240,355.346,268.654,384,304,384z M304,272c26.51,0,48,21.49,48,48c0,26.51-21.49,48-48,48c-26.499-0.026-47.974-21.501-48-48     C256,293.49,277.49,272,304,272z" fill="#D80027"/>
			<path d="M432,232c-13.255,0-24,10.745-24,24s10.745,24,24,24s24-10.745,24-24S445.255,232,432,232z M432,264     c-4.418,0-8-3.582-8-8s3.582-8,8-8s8,3.582,8,8S436.418,264,432,264z" fill="#D80027"/>
			<path d="M304,152c13.255,0,24-10.745,24-24s-10.745-24-24-24s-24,10.745-24,24S290.745,152,304,152z M304,120     c4.418,0,8,3.582,8,8s-3.582,8-8,8s-8-3.582-8-8S299.582,120,304,120z" fill="#D80027"/>
			<path d="M336,192h-64c-4.418,0-8,3.582-8,8s3.582,8,8,8h64c4.418,0,8-3.582,8-8S340.418,192,336,192z" fill="#D80027"/>
			<path d="M144,80h64c4.418,0,8-3.582,8-8s-3.582-8-8-8h-64c-4.418,0-8,3.582-8,8S139.582,80,144,80z" fill="#D80027"/>
		</g>
	</g>
</g>
<g>
</g>
<g>
</g>
<g>
</g>
<g>
</g>
<g>
</g>
<g>
</g>
<g>
</g>
<g>
</g>
<g>
</g>
<g>
</g>
<g>
</g>
<g>
</g>
<g>
</g>
<g>
</g>
<g>
</g>
</svg>
